<?xml version="1.0" encoding="utf-8"?>
<!-- Generator: Adobe Illustrator 22.1.0, SVG Export Plug-In . SVG Version: 6.00 Build 0)  -->
<svg version="1.1" id="Layer_1" xmlns="http://www.w3.org/2000/svg" xmlns:xlink="http://www.w3.org/1999/xlink" x="0px" y="0px"
	 viewBox="0 0 154.7 288" style="enable-background:new 0 0 154.7 288;" xml:space="preserve">
<style type="text/css">
	.st0{fill:#E2E0E0;}
	.st1{fill:#773393;}
	.st2{fill:#0687AA;}
	.st3{fill:#F8981F;}
</style>
<g>
	<path class="st0" d="M107.3,212.3c0,4.8,22,14.6,22,19.7v5.4c0-5.1-22-14.6-22-19.4V212.3z"/>
	<path class="st0" d="M107.3,202c0,4.8,22,14.6,22,19.7v5.5c0-5.1-22-14.6-22-19.4V202z"/>
	<path class="st0" d="M107.3,175.3c0,4.8,22,14.6,22,19.7v5.4c0-5.1-22-14.6-22-19.4V175.3z"/>
	<path class="st0" d="M107.3,165c0,4.8,22,14.6,22,19.7v5.5c0-5.1-22-14.6-22-19.4V165z"/>
	<path class="st0" d="M107.3,137.6c0,4.8,22,14.6,22,19.7v5.5c0-5.1-22-14.6-22-19.4V137.6z"/>
	<path class="st0" d="M107.3,127.4c0,4.8,22,14.6,22,19.7v5.5c0-5.1-22-14.6-22-19.4V127.4z"/>
	<path class="st0" d="M107.3,99.3c0,4.8,22,14.6,22,19.7v5.4c0-5.1-22-14.6-22-19.4V99.3z"/>
	<path class="st0" d="M107.3,89c0,4.8,22,14.6,22,19.7v5.5c0-5.1-22-14.6-22-19.4V89z"/>
	<path class="st0" d="M107.3,62.3c0,4.8,22,14.6,22,19.7v5.4c0-5.1-22-14.6-22-19.4V62.3z"/>
	<path class="st0" d="M107.3,52c0,4.8,22,14.6,22,19.7v5.5c0-5.1-22-14.6-22-19.4C107.3,57.8,107.3,52,107.3,52z"/>
	<path class="st0" d="M107.3,24.6c0,4.8,22,14.6,22,19.7v5.5c0-5.1-22-14.6-22-19.4C107.3,30.4,107.3,24.6,107.3,24.6z"/>
	<path class="st0" d="M107.3,14.4c0,4.8,22,14.6,22,19.7v5.5c0-5.1-22-14.6-22-19.4C107.3,20.2,107.3,14.4,107.3,14.4z"/>
	<path class="st1" d="M107.3,246.4c0-4.8,22-14.6,22-19.7v-5.5c0,5.1-22,14.6-22,19.4V246.4z"/>
	<path class="st1" d="M107.3,256.6c0-4.8,22-14.6,22-19.7v-5.5c0,5.1-22,14.6-22,19.4V256.6z"/>
	<path class="st1" d="M107.3,209.4c0-4.8,22-14.6,22-19.7v-5.5c0,5.1-22,14.6-22,19.4V209.4z"/>
	<path class="st1" d="M107.3,219.6c0-4.8,22-14.6,22-19.7v-5.5c0,5.1-22,14.6-22,19.4V219.6z"/>
	<path class="st1" d="M107.3,171.8c0-4.8,22-14.6,22-19.7v-5.5c0,5.1-22,14.6-22,19.4V171.8z"/>
	<path class="st1" d="M107.3,182c0-4.8,22-14.6,22-19.7v-5.5c0,5.1-22,14.6-22,19.4V182z"/>
	<path class="st1" d="M107.3,133.4c0-4.8,22-14.6,22-19.7v-5.5c0,5.1-22,14.6-22,19.4V133.4z"/>
	<path class="st1" d="M107.3,143.6c0-4.8,22-14.6,22-19.7v-5.5c0,5.1-22,14.6-22,19.4V143.6z"/>
	<path class="st1" d="M107.3,96.4c0-4.8,22-14.6,22-19.7v-5.5c0,5.1-22,14.6-22,19.4V96.4z"/>
	<path class="st1" d="M107.3,106.6c0-4.8,22-14.6,22-19.7v-5.5c0,5.1-22,14.6-22,19.4V106.6z"/>
	<path class="st1" d="M107.3,58.7c0-4.8,22-14.6,22-19.7v-5.4c0,5.1-22,14.6-22,19.4V58.7z"/>
	<path class="st1" d="M107.3,69c0-4.8,22-14.6,22-19.7v-5.5c0,5.1-22,14.6-22,19.4V69z"/>
	<g>
		<path class="st0" d="M59.3,212.3c0,4.8,22,14.6,22,19.7v5.4c0-5.1-22-14.6-22-19.4V212.3z"/>
		<path class="st0" d="M59.3,202c0,4.8,22,14.6,22,19.7v5.5c0-5.1-22-14.6-22-19.4V202z"/>
		<path class="st0" d="M59.3,175.3c0,4.8,22,14.6,22,19.7v5.4c0-5.1-22-14.6-22-19.4V175.3z"/>
		<path class="st0" d="M59.3,165c0,4.8,22,14.6,22,19.7v5.5c0-5.1-22-14.6-22-19.4V165z"/>
		<path class="st0" d="M59.3,137.6c0,4.8,22,14.6,22,19.7v5.5c0-5.1-22-14.6-22-19.4V137.6z"/>
		<path class="st0" d="M59.3,127.4c0,4.8,22,14.6,22,19.7v5.5c0-5.1-22-14.6-22-19.4V127.4z"/>
		<path class="st0" d="M59.3,99.3c0,4.8,22,14.6,22,19.7v5.4c0-5.1-22-14.6-22-19.4V99.3z"/>
		<path class="st0" d="M59.3,89c0,4.8,22,14.6,22,19.7v5.5c0-5.1-22-14.6-22-19.4V89z"/>
		<path class="st0" d="M59.3,62.3c0,4.8,22,14.6,22,19.7v5.4c0-5.1-22-14.6-22-19.4V62.3z"/>
		<path class="st0" d="M59.3,52c0,4.8,22,14.6,22,19.7v5.5c0-5.1-22-14.6-22-19.4C59.3,57.8,59.3,52,59.3,52z"/>
		<path class="st0" d="M59.3,24.6c0,4.8,22,14.6,22,19.7v5.5c0-5.1-22-14.6-22-19.4C59.3,30.4,59.3,24.6,59.3,24.6z"/>
		<path class="st0" d="M59.3,14.4c0,4.8,22,14.6,22,19.7v5.5c0-5.1-22-14.6-22-19.4C59.3,20.2,59.3,14.4,59.3,14.4z"/>
		<path class="st2" d="M59.3,246.4c0-4.8,22-14.6,22-19.7v-5.5c0,5.1-22,14.6-22,19.4V246.4z"/>
		<path class="st2" d="M59.3,256.6c0-4.8,22-14.6,22-19.7v-5.5c0,5.1-22,14.6-22,19.4V256.6z"/>
		<path class="st2" d="M59.3,209.4c0-4.8,22-14.6,22-19.7v-5.5c0,5.1-22,14.6-22,19.4V209.4z"/>
		<path class="st2" d="M59.3,219.6c0-4.8,22-14.6,22-19.7v-5.5c0,5.1-22,14.6-22,19.4V219.6z"/>
		<path class="st2" d="M59.3,171.8c0-4.8,22-14.6,22-19.7v-5.5c0,5.1-22,14.6-22,19.4V171.8z"/>
		<path class="st2" d="M59.3,182c0-4.8,22-14.6,22-19.7v-5.5c0,5.1-22,14.6-22,19.4V182z"/>
		<path class="st2" d="M59.3,133.4c0-4.8,22-14.6,22-19.7v-5.5c0,5.1-22,14.6-22,19.4V133.4z"/>
		<path class="st2" d="M59.3,143.6c0-4.8,22-14.6,22-19.7v-5.5c0,5.1-22,14.6-22,19.4V143.6z"/>
		<path class="st2" d="M59.3,96.4c0-4.8,22-14.6,22-19.7v-5.5c0,5.1-22,14.6-22,19.4V96.4z"/>
		<path class="st2" d="M59.3,106.6c0-4.8,22-14.6,22-19.7v-5.5c0,5.1-22,14.6-22,19.4V106.6z"/>
		<path class="st2" d="M59.3,58.7c0-4.8,22-14.6,22-19.7v-5.4c0,5.1-22,14.6-22,19.4V58.7z"/>
		<path class="st2" d="M59.3,69c0-4.8,22-14.6,22-19.7v-5.5c0,5.1-22,14.6-22,19.4V69z"/>
		<path class="st0" d="M15.3,212.3c0,4.8,22,14.6,22,19.7v5.4c0-5.1-22-14.6-22-19.4V212.3z"/>
		<path class="st0" d="M15.3,202c0,4.8,22,14.6,22,19.7v5.5c0-5.1-22-14.6-22-19.4V202z"/>
		<path class="st0" d="M15.3,175.3c0,4.8,22,14.6,22,19.7v5.4c0-5.1-22-14.6-22-19.4V175.3z"/>
		<path class="st0" d="M15.3,165c0,4.8,22,14.6,22,19.7v5.5c0-5.1-22-14.6-22-19.4V165z"/>
		<path class="st0" d="M15.3,137.6c0,4.8,22,14.6,22,19.7v5.5c0-5.1-22-14.6-22-19.4V137.6z"/>
		<path class="st0" d="M15.3,127.4c0,4.8,22,14.6,22,19.7v5.5c0-5.1-22-14.6-22-19.4V127.4z"/>
		<path class="st0" d="M15.3,99.3c0,4.8,22,14.6,22,19.7v5.4c0-5.1-22-14.6-22-19.4V99.3z"/>
		<path class="st0" d="M15.3,89c0,4.8,22,14.6,22,19.7v5.5c0-5.1-22-14.6-22-19.4V89z"/>
		<path class="st0" d="M15.3,62.3c0,4.8,22,14.6,22,19.7v5.4c0-5.1-22-14.6-22-19.4V62.3z"/>
		<path class="st0" d="M15.3,52c0,4.8,22,14.6,22,19.7v5.5c0-5.1-22-14.6-22-19.4C15.3,57.8,15.3,52,15.3,52z"/>
		<path class="st0" d="M15.3,24.6c0,4.8,22,14.6,22,19.7v5.5c0-5.1-22-14.6-22-19.4C15.3,30.4,15.3,24.6,15.3,24.6z"/>
		<path class="st0" d="M15.3,14.4c0,4.8,22,14.6,22,19.7v5.5c0-5.1-22-14.6-22-19.4C15.3,20.2,15.3,14.4,15.3,14.4z"/>
		<path class="st3" d="M15.3,246.4c0-4.8,22-14.6,22-19.7v-5.5c0,5.1-22,14.6-22,19.4V246.4z"/>
		<path class="st3" d="M15.3,256.6c0-4.8,22-14.6,22-19.7v-5.5c0,5.1-22,14.6-22,19.4V256.6z"/>
		<path class="st3" d="M15.3,209.4c0-4.8,22-14.6,22-19.7v-5.5c0,5.1-22,14.6-22,19.4V209.4z"/>
		<path class="st3" d="M15.3,219.6c0-4.8,22-14.6,22-19.7v-5.5c0,5.1-22,14.6-22,19.4V219.6z"/>
		<path class="st3" d="M15.3,171.8c0-4.8,22-14.6,22-19.7v-5.5c0,5.1-22,14.6-22,19.4V171.8z"/>
		<path class="st3" d="M15.3,182c0-4.8,22-14.6,22-19.7v-5.5c0,5.1-22,14.6-22,19.4V182z"/>
		<path class="st3" d="M15.3,133.4c0-4.8,22-14.6,22-19.7v-5.5c0,5.1-22,14.6-22,19.4V133.4z"/>
		<path class="st3" d="M15.3,143.6c0-4.8,22-14.6,22-19.7v-5.5c0,5.1-22,14.6-22,19.4V143.6z"/>
		<path class="st3" d="M15.3,96.4c0-4.8,22-14.6,22-19.7v-5.5c0,5.1-22,14.6-22,19.4V96.4z"/>
		<path class="st3" d="M15.3,106.6c0-4.8,22-14.6,22-19.7v-5.5c0,5.1-22,14.6-22,19.4V106.6z"/>
		<path class="st3" d="M15.3,58.7c0-4.8,22-14.6,22-19.7v-5.4c0,5.1-22,14.6-22,19.4V58.7z"/>
		<path class="st3" d="M15.3,69c0-4.8,22-14.6,22-19.7v-5.5c0,5.1-22,14.6-22,19.4V69z"/>
	</g>
</g>
</svg>
