<?xml version="1.0" encoding="utf-8"?>
<!-- Generator: Adobe Illustrator 22.1.0, SVG Export Plug-In . SVG Version: 6.00 Build 0)  -->
<svg version="1.1" id="Layer_1" xmlns="http://www.w3.org/2000/svg" xmlns:xlink="http://www.w3.org/1999/xlink" x="0px" y="0px"
	 viewBox="0 0 256 256" style="enable-background:new 0 0 256 256;" xml:space="preserve">
<style type="text/css">
	.st0{fill:#C16B05;}
	.st1{fill:#FFFFFF;}
	.st2{fill:#BCBCBC;}
</style>
<g>
	<path class="st0" d="M183,216H73c-4.4,0-8-3.6-8-8V72c0-4.4,3.6-8,8-8h110c4.4,0,8,3.6,8,8v136C191,212.4,187.4,216,183,216z"/>
	<path d="M183,218H73c-5.5,0-10-4.5-10-10V72c0-5.5,4.5-10,10-10h110c5.5,0,10,4.5,10,10v136C193,213.5,188.5,218,183,218z M73,66
		c-3.3,0-6,2.7-6,6v136c0,3.3,2.7,6,6,6h110c3.3,0,6-2.7,6-6V72c0-3.3-2.7-6-6-6H73z"/>
	<path class="st1" d="M178,206H78c-1.1,0-2-0.9-2-2V77c0-1.1,0.9-2,2-2h100c1.1,0,2,0.9,2,2v127C180,205.1,179.1,206,178,206z"/>
	<path d="M178,208H78c-2.2,0-4-1.8-4-4V77c0-2.2,1.8-4,4-4h100c2.2,0,4,1.8,4,4v127C182,206.2,180.2,208,178,208z M78,77v127h100
		l0-127H78L78,77z"/>
	<path class="st2" d="M158,55h-15c0-8.3-6.7-15-15-15s-15,6.7-15,15H98c-3.3,0-6,2.7-6,6v24h72V61C164,57.7,161.3,55,158,55z"/>
	<path d="M166,87H90V61c0-4.4,3.6-8,8-8h13.1c1-8.4,8.2-15,16.9-15s15.9,6.6,16.9,15H158c4.4,0,8,3.6,8,8V87z M94,83h68V61
		c0-2.2-1.8-4-4-4h-17v-2c0-7.2-5.8-13-13-13s-13,5.8-13,13v2H98c-2.2,0-4,1.8-4,4V83z"/>
	<circle class="st2" cx="128" cy="55.2" r="5.2"/>
	<path d="M128,62.5c-4,0-7.2-3.3-7.2-7.2S124,48,128,48s7.2,3.3,7.2,7.2S132,62.5,128,62.5z M128,52c-1.8,0-3.2,1.5-3.2,3.2
		s1.5,3.2,3.2,3.2c1.8,0,3.2-1.5,3.2-3.2S129.8,52,128,52z"/>
	<rect x="90" y="112" width="64" height="4"/>
	<rect x="90" y="125" width="49" height="4"/>
	<rect x="90" y="138" width="64" height="4"/>
	<rect x="90" y="151" width="49" height="4"/>
	<rect x="90" y="164" width="64" height="4"/>
</g>
</svg>
