<?xml version="1.0" encoding="utf-8"?>
<!-- Generator: Adobe Illustrator 22.1.0, SVG Export Plug-In . SVG Version: 6.00 Build 0)  -->
<svg version="1.1" id="Layer_1" xmlns="http://www.w3.org/2000/svg" xmlns:xlink="http://www.w3.org/1999/xlink" x="0px" y="0px"
	 viewBox="0 0 128 128" style="enable-background:new 0 0 128 128;" xml:space="preserve">
<style type="text/css">
	.st0{fill:#FFFFE0;}
	.st1{fill:#00FF00;}
	.st2{fill:none;stroke:#000000;stroke-width:2;stroke-linecap:round;stroke-linejoin:round;}
	.st3{fill:none;stroke:#000000;stroke-width:2;stroke-linecap:round;}
</style>
<g>
	<g transform="matrix(1.4674 1.7112 -1.7112 1.4674 65.169 -25.599)">
		<path class="st0" d="M20.8,27.8L42,3c-3,3-3,5.4-3,9l0,36c0,6-6,9-9,9s-9-3-9-9C20.9,36.1,20.7,40.6,20.8,27.8L20.8,27.8z"/>
		<path class="st1" d="M38.7,15.1l-7.5-0.2"/>
		<path class="st1" d="M38.5,24.2L31,24"/>
		<path class="st1" d="M38.5,33.1L31,32.9"/>
		<path class="st1" d="M38.5,42L31,41.8"/>
	</g>
	<path class="st2" d="M86.4,9.6l35.2,41.1c-9.5-0.7-13.6,2.8-19.8,8.1l-61.6,52.8c-10.3,8.8-24.2,2.9-28.6-2.2s-8.1-19.8,2.2-28.6
		l61.6-52.8C81.6,22.7,85.7,19.1,86.4,9.6L86.4,9.6z"/>
	<path class="st3" d="M96,62.8L85.3,49.7"/>
	<path class="st3" d="M80.3,75.8L69.6,62.7"/>
	<path class="st3" d="M65,88.9L54.3,75.8"/>
	<path class="st3" d="M49.8,102L39.1,88.9"/>
</g>
</svg>
